999
"DXF R12 Output" (www.mydxf.blogspot.com)
 0 
SECTION
 2 
HEADER
 9 
$ACADVER
 1 
AC1009
 9 
$EXTMIN
 10 
 0 
 20 
 0 
 9 
$EXTMAX
 10 
 8.5 
 20 
 11 
 0 
ENDSEC
 0 
SECTION
 2 
ENTITIES
0
LINE
8
Layer 1
10
40.000000
20
100.000000
11
-48.000000
21
100.000000
0
LINE
8
Layer 1
10
-48.000000
20
100.000000
11
-48.000000
21
240.000000
0
LINE
8
Layer 1
10
-48.000000
20
240.000000
11
-48.000000
21
259.998000
0
LINE
8
Layer 1
10
-48.000000
20
259.998000
11
-43.998000
21
259.998000
0
LINE
8
Layer 1
10
-43.998000
20
259.998000
11
-43.998000
21
264.003000
0
LINE
8
Layer 1
10
-43.998000
20
264.003000
11
-48.000000
21
264.003000
0
LINE
8
Layer 1
10
-48.000000
20
264.003000
11
-48.000000
21
323.998000
0
LINE
8
Layer 1
10
-48.000000
20
323.998000
11
-43.998000
21
323.998000
0
LINE
8
Layer 1
10
-43.998000
20
323.998000
11
-43.998000
21
328.003000
0
LINE
8
Layer 1
10
-43.998000
20
328.003000
11
-48.000000
21
328.003000
0
LINE
8
Layer 1
10
-48.000000
20
328.003000
11
-48.000000
21
348.000000
0
LINE
8
Layer 1
10
-48.000000
20
348.000000
11
-43.998000
21
348.000000
0
LINE
8
Layer 1
10
-43.998000
20
348.000000
11
35.998000
21
348.000000
0
LINE
8
Layer 1
10
35.998000
20
348.000000
11
40.000000
21
348.000000
0
LINE
8
Layer 1
10
40.000000
20
348.000000
11
40.000000
21
328.003000
0
LINE
8
Layer 1
10
40.000000
20
328.003000
11
35.998000
21
328.003000
0
LINE
8
Layer 1
10
35.998000
20
328.003000
11
35.998000
21
323.998000
0
LINE
8
Layer 1
10
35.998000
20
323.998000
11
40.000000
21
323.998000
0
LINE
8
Layer 1
10
40.000000
20
323.998000
11
40.000000
21
264.003000
0
LINE
8
Layer 1
10
40.000000
20
264.003000
11
35.998000
21
264.003000
0
LINE
8
Layer 1
10
35.998000
20
264.003000
11
35.998000
21
259.998000
0
LINE
8
Layer 1
10
35.998000
20
259.998000
11
40.000000
21
259.998000
0
LINE
8
Layer 1
10
40.000000
20
259.998000
11
40.000000
21
240.000000
0
LINE
8
Layer 1
10
40.000000
20
240.000000
11
40.000000
21
100.000000
0
LINE
8
Layer 1
10
-0.846419
20
313.501000
11
-0.146040
21
313.501000
0
LINE
8
Layer 1
10
-0.146040
20
313.501000
11
0.499000
21
313.501000
0
LINE
8
Layer 1
10
0.499000
20
313.501000
11
0.499000
21
317.502000
0
LINE
8
Layer 1
10
0.499000
20
317.502000
11
-8.504000
21
317.502000
0
LINE
8
Layer 1
10
-8.504000
20
317.502000
11
-8.504000
21
313.501000
0
LINE
8
Layer 1
10
-8.504000
20
313.501000
11
-7.159580
21
313.501000
0
LINE
8
Layer 1
10
-7.159580
20
313.501000
11
-8.176000
21
313.340000
0
LINE
8
Layer 1
10
-8.176000
20
313.340000
11
-11.941000
21
311.422000
0
LINE
8
Layer 1
10
-11.941000
20
311.422000
11
-14.928000
21
308.434000
0
LINE
8
Layer 1
10
-14.928000
20
308.434000
11
-16.846000
21
304.669000
0
LINE
8
Layer 1
10
-16.846000
20
304.669000
11
-17.507000
21
300.496000
0
LINE
8
Layer 1
10
-17.507000
20
300.496000
11
-17.294100
21
299.152000
0
LINE
8
Layer 1
10
-17.294100
20
299.152000
11
-16.846000
21
296.323000
0
LINE
8
Layer 1
10
-16.846000
20
296.323000
11
-14.928000
21
292.558000
0
LINE
8
Layer 1
10
-14.928000
20
292.558000
11
-11.941000
21
289.571000
0
LINE
8
Layer 1
10
-11.941000
20
289.571000
11
-8.176000
21
287.653000
0
LINE
8
Layer 1
10
-8.176000
20
287.653000
11
-4.003000
21
286.992000
0
LINE
8
Layer 1
10
-4.003000
20
286.992000
11
0.170000
21
287.653000
0
LINE
8
Layer 1
10
0.170000
20
287.653000
11
3.935000
21
289.571000
0
LINE
8
Layer 1
10
3.935000
20
289.571000
11
6.923000
21
292.558000
0
LINE
8
Layer 1
10
6.923000
20
292.558000
11
8.841000
21
296.323000
0
LINE
8
Layer 1
10
8.841000
20
296.323000
11
9.289110
21
299.152000
0
LINE
8
Layer 1
10
9.289110
20
299.152000
11
9.502000
21
300.496000
0
LINE
8
Layer 1
10
9.502000
20
300.496000
11
8.841000
21
304.669000
0
LINE
8
Layer 1
10
8.841000
20
304.669000
11
6.923000
21
308.434000
0
LINE
8
Layer 1
10
6.923000
20
308.434000
11
3.935000
21
311.422000
0
LINE
8
Layer 1
10
3.935000
20
311.422000
11
0.170000
21
313.340000
0
LINE
8
Layer 1
10
0.170000
20
313.340000
11
-0.846419
21
313.501000
0
LINE
8
Layer 1
10
-0.846419
20
313.501000
11
-0.846419
21
313.501000
 0 
ENDSEC
 0 
EOF